<svg xmlns="http://www.w3.org/2000/svg" xmlns:xlink="http://www.w3.org/1999/xlink" version="1.1" x="0px" y="0px" viewBox="0 0 512 640" enable-background="new 0 0 512 512" xml:space="preserve"><g><g><g><path d="M403.896,84.122c-2.209,0-3.997-1.788-3.997-3.997c0-11.008-9.321-11.992-35.975-11.992     c-22.07,0-36.997,14.669-37.146,14.818c-1.554,1.561-4.076,1.553-5.652,0.008c-0.141-0.148-15.2-14.826-37.146-14.826     c-22.07,0-36.997,14.669-37.146,14.818c-1.553,1.561-4.075,1.553-5.651,0.008c-0.141-0.148-15.2-14.826-37.146-14.826     c-22.07,0-36.997,14.669-37.146,14.818c-1.554,1.561-4.075,1.553-5.652,0.008c-0.141-0.148-15.2-14.826-37.146-14.826     c-22.078,0-36.997,14.669-37.146,14.818c-1.554,1.561-4.091,1.553-5.652,0.008c-0.141-0.148-15.2-14.826-37.146-14.826     c-11.492,0-21.423,0-27.887,1.842c-5.816,1.663-8.088,4.513-8.088,10.149c0,2.209-1.78,3.997-3.997,3.997     c-2.202,0-3.997-1.788-3.997-3.997c0-9.197,4.668-15.2,13.896-17.831c7.525-2.155,17.972-2.155,30.072-2.155     c19.643,0,34.124,9.884,39.972,14.662c5.848-4.778,20.321-14.662,39.972-14.662c19.643,0,34.124,9.884,39.972,14.662     c5.848-4.778,20.33-14.662,39.972-14.662c19.643,0,34.125,9.884,39.973,14.662c5.847-4.778,20.329-14.662,39.971-14.662     c19.643,0,34.125,9.884,39.973,14.662c5.848-4.778,20.329-14.662,39.972-14.662c24.561,0,43.969,0,43.969,19.986     C407.893,82.333,406.104,84.122,403.896,84.122z"/></g></g><g><g><path d="M335.163,95.528c-1.07,0-2.132-0.43-2.92-1.265c-1.515-1.608-1.429-4.138,0.18-5.652     c1.365-1.273,13.811-12.483,31.501-12.483c8.79,0,19.735,0,24.998,1.304c2.139,0.53,3.442,2.701,2.911,4.84     c-0.538,2.147-2.709,3.42-4.848,2.92c-4.294-1.069-15.59-1.069-23.062-1.069c-14.864,0-25.576,9.899-26.028,10.321     C337.122,95.168,336.139,95.528,335.163,95.528z"/></g></g><g><g><path d="M255.219,95.528c-1.069,0-2.131-0.43-2.919-1.265c-1.515-1.608-1.429-4.138,0.179-5.652     c1.366-1.273,13.811-12.483,31.501-12.483c17.449,0,29.987,11.086,31.361,12.351c1.46,1.343,1.726,3.575,0.586,5.215     c-1.125,1.632-3.279,2.186-5.067,1.312c-0.336-0.172-0.663-0.398-0.937-0.648c-0.453-0.421-11.281-10.235-25.943-10.235     c-14.864,0-25.575,9.899-26.028,10.321C257.179,95.168,256.195,95.528,255.219,95.528z"/></g></g><g><g><path d="M175.275,95.528c-1.069,0-2.131-0.43-2.92-1.265c-1.515-1.608-1.429-4.138,0.18-5.652     c1.366-1.273,13.811-12.483,31.501-12.483c17.457,0,29.987,11.086,31.361,12.351c1.46,1.343,1.725,3.575,0.585,5.215     c-1.124,1.632-3.294,2.186-5.066,1.312c-0.336-0.172-0.664-0.398-0.937-0.648c-0.453-0.421-11.281-10.235-25.943-10.235     c-14.872,0-25.575,9.899-26.028,10.321C177.235,95.168,176.251,95.528,175.275,95.528z"/></g></g><g><g><path d="M95.332,95.512c-1.038,0-2.077-0.398-2.857-1.203c-1.53-1.569-1.515-4.06,0.031-5.605     c0.125-0.125,13.085-12.577,31.587-12.577c17.457,0,29.986,11.086,31.36,12.351c1.46,1.343,1.726,3.575,0.586,5.215     c-1.124,1.632-3.287,2.186-5.066,1.312c-0.336-0.172-0.664-0.398-0.938-0.648c-0.452-0.421-11.28-10.235-25.942-10.235     c-14.974,0-25.888,10.188-25.997,10.29C97.322,95.145,96.331,95.512,95.332,95.512z"/></g></g><g><g><path d="M72.801,95.426c-0.593,0-1.202-0.141-1.772-0.422c-0.335-0.172-0.663-0.398-0.937-0.648     c-0.453-0.421-11.281-10.235-25.942-10.235c-7.479,0-18.784,0-23.077,1.077c-2.14,0.516-4.31-0.765-4.841-2.912     c-0.547-2.139,0.757-4.31,2.904-4.848c5.246-1.312,16.207-1.312,25.014-1.312c17.456,0,29.986,11.086,31.36,12.351     c1.46,1.343,1.726,3.575,0.586,5.215C75.33,94.809,74.081,95.426,72.801,95.426z"/></g></g><g><g><path d="M12.172,275.986c-2.046,0-3.786-1.561-3.981-3.639c-7.916-87.11-8.01-191.185-8.01-192.223     c0-2.21,1.795-3.997,3.997-3.997l0,0c2.217,0,3.997,1.787,3.997,3.997c0,1.038,0.094,104.762,7.979,191.506     c0.203,2.193-1.421,4.137-3.614,4.34C12.414,275.979,12.297,275.986,12.172,275.986z"/></g></g><g><g><path d="M395.901,275.986c-0.117,0-0.234-0.008-0.359-0.016c-2.201-0.203-3.825-2.146-3.623-4.34     c7.886-86.76,7.979-190.468,7.979-191.506c0-2.21,1.788-3.997,3.997-3.997s3.997,1.787,3.997,3.997     c0,1.038-0.094,105.113-8.01,192.223C399.695,274.426,397.946,275.986,395.901,275.986z"/></g></g><g><g><path d="M84.121,259.998c-2.209,0-3.997-1.789-3.997-3.998V112.102c0-2.21,1.788-3.998,3.997-3.998s3.997,1.788,3.997,3.998V256     C88.118,258.209,86.33,259.998,84.121,259.998z"/></g></g><g><g><path d="M164.064,259.998c-2.209,0-3.997-1.789-3.997-3.998V112.102c0-2.21,1.788-3.998,3.997-3.998     c2.21,0,3.997,1.788,3.997,3.998V256C168.062,258.209,166.274,259.998,164.064,259.998z"/></g></g><g><g><path d="M244.009,259.998c-2.21,0-3.998-1.789-3.998-3.998V112.102c0-2.21,1.788-3.998,3.998-3.998     c2.209,0,3.997,1.788,3.997,3.998V256C248.006,258.209,246.218,259.998,244.009,259.998z"/></g></g><g><g><path d="M323.952,259.998c-2.21,0-3.998-1.789-3.998-3.998V112.102c0-2.21,1.788-3.998,3.998-3.998     c2.209,0,3.997,1.788,3.997,3.998V256C327.949,258.209,326.161,259.998,323.952,259.998z"/></g></g><g><g><path d="M395.901,307.963H12.172c-2.201,0-3.997-1.787-3.997-3.996v-23.982c0-2.211,1.796-3.998,3.997-3.998h383.729     c2.209,0,3.997,1.787,3.997,3.998v23.982C399.898,306.176,398.11,307.963,395.901,307.963z M16.169,299.969h375.734V283.98     H16.169V299.969z"/></g></g><g><g><path d="M12.172,355.93c-2.209,0-3.997-1.787-3.997-3.996v-39.973c0-2.209,1.788-3.998,3.997-3.998s3.997,1.789,3.997,3.998     v39.973C16.169,354.143,14.381,355.93,12.172,355.93z"/></g></g><g><g><path d="M435.873,355.93h-39.972c-2.21,0-3.998-1.787-3.998-3.996c0-2.211,1.788-3.998,3.998-3.998h39.972     c2.209,0,3.997,1.787,3.997,3.998C439.87,354.143,438.082,355.93,435.873,355.93z"/></g></g><g><g><path d="M299.969,355.93H156.07c-2.209,0-3.997-1.787-3.997-3.996c0-2.211,1.788-3.998,3.997-3.998h143.898     c2.21,0,3.997,1.787,3.997,3.998C303.966,354.143,302.179,355.93,299.969,355.93z"/></g></g><g><g><path d="M20.166,355.93h-7.994c-2.209,0-3.997-1.787-3.997-3.996c0-2.211,1.788-3.998,3.997-3.998h7.994     c2.202,0,3.997,1.787,3.997,3.998C24.163,354.143,22.368,355.93,20.166,355.93z"/></g></g><g><g><path d="M435.873,355.93c-0.422,0-0.843-0.062-1.265-0.203c-2.093-0.703-3.225-2.967-2.529-5.059l13.318-39.973     c0.703-2.092,2.951-3.238,5.059-2.529c2.093,0.703,3.225,2.967,2.529,5.061l-13.318,39.971     C439.104,354.867,437.544,355.93,435.873,355.93z"/></g></g><g><g><path d="M467.851,307.963h-63.955c-2.209,0-3.997-1.787-3.997-3.996s1.788-3.998,3.997-3.998h63.955     c2.209,0,3.997,1.789,3.997,3.998S470.06,307.963,467.851,307.963z"/></g></g><g><g><path d="M88.118,451.861c-35.264,0-63.955-28.689-63.955-63.953c0-35.266,28.691-63.955,63.955-63.955     c35.265,0,63.955,28.689,63.955,63.955C152.073,423.172,123.383,451.861,88.118,451.861z M88.118,331.947     c-30.854,0-55.96,25.107-55.96,55.961c0,30.852,25.106,55.959,55.96,55.959s55.961-25.107,55.961-55.959     C144.079,357.055,118.972,331.947,88.118,331.947z"/></g></g><g><g><path d="M347.935,451.861c-28.651,0-51.963-23.311-51.963-51.963c0-28.65,23.312-51.963,51.963-51.963     c28.652,0,51.964,23.312,51.964,51.963C399.898,428.551,376.587,451.861,347.935,451.861z M347.935,355.93     c-24.248,0-43.969,19.729-43.969,43.969s19.721,43.969,43.969,43.969c24.249,0,43.969-19.729,43.969-43.969     S372.184,355.93,347.935,355.93z"/></g></g><g><g><path d="M88.118,403.896c-8.822,0-15.988-7.176-15.988-15.988c0-8.814,7.166-15.99,15.988-15.99s15.989,7.176,15.989,15.99     C104.107,396.721,96.94,403.896,88.118,403.896z M88.118,379.912c-4.403,0-7.994,3.584-7.994,7.996     c0,4.41,3.591,7.994,7.994,7.994s7.994-3.584,7.994-7.994C96.112,383.496,92.521,379.912,88.118,379.912z"/></g></g><g><g><path d="M88.118,363.924c-2.209,0-3.997-1.787-3.997-3.996v-15.99c0-2.209,1.788-3.996,3.997-3.996     c2.21,0,3.997,1.787,3.997,3.996v15.99C92.115,362.137,90.328,363.924,88.118,363.924z"/></g></g><g><g><path d="M88.118,435.873c-2.209,0-3.997-1.787-3.997-3.996v-15.99c0-2.209,1.788-3.996,3.997-3.996     c2.21,0,3.997,1.787,3.997,3.996v15.99C92.115,434.086,90.328,435.873,88.118,435.873z"/></g></g><g><g><path d="M74.128,367.672c-1.374,0-2.717-0.719-3.466-1.998l-7.994-13.842c-1.102-1.914-0.445-4.357,1.467-5.457     c1.897-1.125,4.356-0.453,5.465,1.459l7.995,13.842c1.101,1.912,0.444,4.355-1.468,5.457     C75.502,367.5,74.815,367.672,74.128,367.672z"/></g></g><g><g><path d="M110.103,429.986c-1.374,0-2.717-0.717-3.466-1.998l-7.994-13.85c-1.102-1.912-0.445-4.355,1.467-5.457     c1.897-1.117,4.356-0.453,5.466,1.461l7.994,13.85c1.101,1.912,0.444,4.355-1.468,5.457     C111.477,429.814,110.79,429.986,110.103,429.986z"/></g></g><g><g><path d="M63.886,377.914c-0.688,0-1.374-0.172-1.999-0.539l-13.85-7.994c-1.913-1.1-2.568-3.543-1.468-5.457     c1.108-1.912,3.561-2.576,5.465-1.459l13.85,7.994c1.913,1.1,2.568,3.545,1.468,5.457     C66.603,377.195,65.26,377.914,63.886,377.914z"/></g></g><g><g><path d="M126.201,413.889c-0.688,0-1.374-0.172-1.999-0.539l-13.85-7.994c-1.913-1.1-2.568-3.543-1.468-5.457     c1.108-1.912,3.545-2.576,5.465-1.459l13.85,7.994c1.913,1.1,2.568,3.545,1.468,5.457     C128.918,413.17,127.575,413.889,126.201,413.889z"/></g></g><g><g><path d="M60.138,391.904H44.142c-2.21,0-3.997-1.787-3.997-3.996c0-2.211,1.787-3.998,3.997-3.998h15.996     c2.21,0,3.997,1.787,3.997,3.998C64.135,390.117,62.348,391.904,60.138,391.904z"/></g></g><g><g><path d="M132.087,391.904h-15.988c-2.209,0-3.997-1.787-3.997-3.996c0-2.211,1.788-3.998,3.997-3.998h15.988     c2.21,0,3.997,1.787,3.997,3.998C136.084,390.117,134.297,391.904,132.087,391.904z"/></g></g><g><g><path d="M50.036,413.889c-1.374,0-2.717-0.719-3.467-1.998c-1.101-1.912-0.445-4.357,1.468-5.457l13.85-7.994     c1.897-1.117,4.356-0.453,5.465,1.459c1.101,1.914,0.445,4.357-1.468,5.457l-13.85,7.994     C51.41,413.717,50.723,413.889,50.036,413.889z"/></g></g><g><g><path d="M112.352,377.914c-1.374,0-2.717-0.719-3.467-1.998c-1.101-1.912-0.445-4.357,1.468-5.457l13.842-7.994     c1.905-1.117,4.349-0.453,5.457,1.459c1.108,1.914,0.453,4.357-1.46,5.457l-13.842,7.994     C113.726,377.742,113.038,377.914,112.352,377.914z"/></g></g><g><g><path d="M66.118,429.986c-0.672,0-1.358-0.172-1.991-0.537c-1.912-1.102-2.568-3.545-1.459-5.457l7.994-13.85     c1.108-1.914,3.56-2.578,5.465-1.461c1.912,1.102,2.568,3.545,1.468,5.457l-8.01,13.85     C68.851,429.27,67.508,429.986,66.118,429.986z"/></g></g><g><g><path d="M102.108,367.672c-0.687,0-1.374-0.172-1.999-0.539c-1.912-1.102-2.568-3.545-1.467-5.457l7.994-13.842     c1.108-1.912,3.56-2.584,5.465-1.459c1.912,1.1,2.568,3.543,1.468,5.457l-7.994,13.842     C104.825,366.953,103.482,367.672,102.108,367.672z"/></g></g><g><g><path d="M347.935,411.891c-6.612,0-11.991-5.379-11.991-11.992c0-6.611,5.379-11.99,11.991-11.99     c6.613,0,11.992,5.379,11.992,11.99C359.927,406.512,354.548,411.891,347.935,411.891z M347.935,395.902     c-2.201,0-3.997,1.795-3.997,3.996s1.796,3.998,3.997,3.998c2.202,0,3.998-1.797,3.998-3.998S350.137,395.902,347.935,395.902z"/></g></g><g><g><path d="M347.935,383.91c-2.209,0-3.997-1.787-3.997-3.998v-15.988c0-2.209,1.788-3.996,3.997-3.996     c2.21,0,3.998,1.787,3.998,3.996v15.988C351.933,382.123,350.145,383.91,347.935,383.91z"/></g></g><g><g><path d="M347.935,439.871c-2.209,0-3.997-1.789-3.997-3.998v-15.988c0-2.209,1.788-3.998,3.997-3.998     c2.21,0,3.998,1.789,3.998,3.998v15.988C351.933,438.082,350.145,439.871,347.935,439.871z"/></g></g><g><g><path d="M333.804,389.766c-1.022,0-2.045-0.391-2.826-1.172l-11.312-11.305c-1.562-1.561-1.562-4.09,0-5.652     c1.562-1.561,4.091-1.561,5.652,0l11.312,11.305c1.562,1.562,1.562,4.092,0,5.652     C335.85,389.375,334.827,389.766,333.804,389.766z"/></g></g><g><g><path d="M373.378,429.332c-1.022,0-2.045-0.391-2.826-1.172l-11.312-11.305c-1.562-1.561-1.562-4.09,0-5.652     c1.562-1.561,4.091-1.561,5.652,0l11.312,11.305c1.562,1.561,1.562,4.092,0,5.652C375.423,428.941,374.4,429.332,373.378,429.332     z"/></g></g><g><g><path d="M327.949,403.896h-15.997c-2.209,0-3.997-1.789-3.997-3.998s1.788-3.996,3.997-3.996h15.997     c2.209,0,3.997,1.787,3.997,3.996S330.158,403.896,327.949,403.896z"/></g></g><g><g><path d="M367.913,403.896c-2.209,0-3.997-1.789-3.997-3.998s1.788-3.996,3.997-3.996l15.996-0.008l0,0     c2.202,0,3.998,1.787,3.998,3.996s-1.788,3.998-3.998,3.998l-15.988,0.008C367.913,403.896,367.913,403.896,367.913,403.896z"/></g></g><g><g><path d="M322.492,429.34c-1.022,0-2.046-0.391-2.826-1.172c-1.562-1.561-1.562-4.092,0-5.652l11.304-11.312     c1.562-1.561,4.092-1.561,5.652,0c1.562,1.562,1.562,4.092,0,5.652l-11.304,11.312     C324.537,428.949,323.515,429.34,322.492,429.34z"/></g></g><g><g><path d="M362.058,389.766c-1.022,0-2.045-0.391-2.826-1.172c-1.562-1.561-1.562-4.09,0-5.652l11.305-11.305     c1.562-1.561,4.091-1.561,5.652,0c1.562,1.562,1.562,4.092,0,5.652l-11.305,11.305     C364.104,389.375,363.081,389.766,362.058,389.766z"/></g></g><g><g><path d="M283.979,323.953H172.059c-2.209,0-3.997-1.789-3.997-3.998s1.788-3.996,3.997-3.996h111.921     c2.21,0,3.998,1.787,3.998,3.996S286.189,323.953,283.979,323.953z"/></g></g><g><g><path d="M172.059,323.953c-6.612,0-11.991-5.379-11.991-11.992c0-2.209,1.788-3.998,3.997-3.998c2.21,0,3.997,1.789,3.997,3.998     c0,2.201,1.796,3.998,3.997,3.998c2.21,0,3.998,1.787,3.998,3.996S174.269,323.953,172.059,323.953z"/></g></g><g><g><path d="M443.867,331.947h-71.949c-2.21,0-3.997-1.789-3.997-3.998s1.787-3.996,3.997-3.996h71.949     c2.21,0,3.997,1.787,3.997,3.996S446.077,331.947,443.867,331.947z"/></g></g><g><g><path d="M44.149,323.953H28.16c-2.209,0-3.997-1.789-3.997-3.998s1.788-3.996,3.997-3.996h15.989     c2.209,0,3.997,1.787,3.997,3.996S46.358,323.953,44.149,323.953z"/></g></g><g><g><path d="M283.979,403.896H164.064c-2.209,0-3.997-1.789-3.997-3.998s1.788-3.996,3.997-3.996h119.915     c2.21,0,3.998,1.787,3.998,3.996S286.189,403.896,283.979,403.896z"/></g></g><g><g><path d="M283.979,387.908H164.064c-2.201,0-3.997-1.789-3.997-3.998s1.796-3.998,3.997-3.998h119.915     c2.21,0,3.998,1.789,3.998,3.998S286.189,387.908,283.979,387.908z"/></g></g><g><g><path d="M212.031,403.889c-2.21,0-3.997-1.789-3.997-3.998v-15.98c0-2.209,1.787-3.998,3.997-3.998     c2.209,0,3.997,1.789,3.997,3.998v15.98C216.028,402.1,214.24,403.889,212.031,403.889z"/></g></g><g><g><path d="M236.014,403.889c-2.209,0-3.997-1.789-3.997-3.998v-15.98c0-2.209,1.788-3.998,3.997-3.998     c2.21,0,3.997,1.789,3.997,3.998v15.98C240.011,402.1,238.224,403.889,236.014,403.889z"/></g></g><g><g><path d="M507.822,403.896H411.89c-2.209,0-3.997-1.789-3.997-3.998s1.788-3.996,3.997-3.996h95.933     c2.209,0,3.997,1.787,3.997,3.996S510.031,403.896,507.822,403.896z"/></g></g><g><g><path d="M507.822,387.908H411.89c-2.209,0-3.997-1.789-3.997-3.998s1.788-3.998,3.997-3.998h95.933     c2.209,0,3.997,1.789,3.997,3.998S510.031,387.908,507.822,387.908z"/></g></g><g><g><path d="M507.822,403.896c-2.21,0-3.997-1.789-3.997-3.998V383.91c0-2.209,1.787-3.998,3.997-3.998     c2.209,0,3.997,1.789,3.997,3.998v15.988C511.819,402.107,510.031,403.896,507.822,403.896z"/></g></g><g><g><path d="M467.851,323.953c-2.21,0-3.998-1.789-3.998-3.998v-15.988c0-2.209,1.788-3.998,3.998-3.998     c2.209,0,3.997,1.789,3.997,3.998v15.988C471.848,322.164,470.06,323.953,467.851,323.953z"/></g></g><g><g><path d="M467.851,323.953h-7.994c-2.21,0-3.998-1.789-3.998-3.998s1.788-3.996,3.998-3.996h7.994     c2.209,0,3.997,1.787,3.997,3.996S470.06,323.953,467.851,323.953z"/></g></g></g></svg>
